<?xml version="1.0" encoding="UTF-8" standalone="no"?>
<!-- Created with Inkscape (http://www.inkscape.org/) -->

<svg
   version="1.1"
   id="svg2"
   width="1239"
   height="1752"
   viewBox="0 0 1239 1752"
   sodipodi:docname="haus.svg"
   inkscape:version="1.1.1 (3bf5ae0d25, 2021-09-20)"
   xmlns:inkscape="http://www.inkscape.org/namespaces/inkscape"
   xmlns:sodipodi="http://sodipodi.sourceforge.net/DTD/sodipodi-0.dtd"
   xmlns="http://www.w3.org/2000/svg"
   xmlns:svg="http://www.w3.org/2000/svg">
  <defs
     id="defs6" />
  <sodipodi:namedview
     id="namedview4"
     pagecolor="#ffffff"
     bordercolor="#666666"
     borderopacity="1.0"
     inkscape:pageshadow="2"
     inkscape:pageopacity="0.0"
     inkscape:pagecheckerboard="0"
     showgrid="false"
     inkscape:zoom="0.43681534"
     inkscape:cx="1275.1384"
     inkscape:cy="875.65606"
     inkscape:window-width="1920"
     inkscape:window-height="1051"
     inkscape:window-x="-9"
     inkscape:window-y="-9"
     inkscape:window-maximized="1"
     inkscape:current-layer="g8" />
  <g
     inkscape:groupmode="layer"
     inkscape:label="Image"
     id="g8">
    <path
       id="path607"
       style="fill:#ffffff;stroke:#000000"
       d="m 821.27478,1609.3486 c 3.33272,-0.8785 9.20097,-3.2331 13.04055,-5.2325 6.15797,-3.2068 11.41164,-8.0867 44.55896,-41.3899 20.66785,-20.765 39.20962,-38.6024 41.20394,-39.6387 1.99432,-1.0364 12.20683,-3.6819 22.69446,-5.879 23.07258,-4.8335 52.19813,-10.7797 145.75571,-29.7571 17.4828,-3.5463 32.5052,-6.9787 33.383,-7.6277 1.4189,-1.049 1.5573,-5.2719 1.2474,-38.0658 -0.1912,-20.2873 -0.027,-44.9878 0.3662,-54.89 1.2568,-31.6544 -0.7143,-40.5094 -11.0674,-49.7201 -5.2064,-4.632 -6.1647,-5.0628 -31.4677,-14.1462 -7.0847,-2.5434 -14.076,-5.6426 -15.5363,-6.8872 l -2.6549,-2.2629 -0.1482,-28.3329 c -0.1446,-27.6577 -0.095,-28.4196 2.0866,-31.9693 1.2292,-1.9999 19.9103,-21.1597 41.5136,-42.5773 21.6032,-21.4176 40.1481,-40.3644 41.2107,-42.104 1.7301,-2.8324 1.9531,-5.4309 2.1337,-24.8613 0.1767,-19.0029 0,-21.9005 -1.4382,-23.3264 -1.4912,-1.4802 -8.5099,-1.5857 -77.2742,-1.1623 -56.5028,0.3479 -76.19722,0.7701 -77.86075,1.6691 -1.22472,0.6618 -8.62297,7.3409 -16.44056,14.8422 -15.61719,14.9855 -16.36669,15.5687 -18.96682,14.7584 -1.66204,-0.5179 -28.71123,-27.4866 -36.11675,-36.0093 -3.11294,-3.5825 -3.18917,-3.8547 -1.52859,-5.458 0.96125,-0.9282 3.99414,-2.3791 6.73976,-3.2244 4.93203,-1.5183 27.19918,-9.3473 34.93616,-12.2834 2.19567,-0.8332 11.62797,-4.2378 20.96067,-7.5658 9.33271,-3.3279 25.27768,-9.1061 35.43328,-12.8402 10.1556,-3.7342 21.54,-7.9032 25.2986,-9.2646 12.0049,-4.348 15.7516,-6.5137 17.1512,-9.9133 1.9797,-4.8087 2.0588,-85.05803 0.087,-88.53693 -1.5172,-2.67721 -22.2538,-25.14801 -25.9983,-28.17249 -1.2428,-1.00382 -2.2628,-2.44509 -2.2668,-3.20283 0,-0.75774 -0.6344,-1.7343 -1.4009,-2.17012 -0.7665,-0.43582 -26.0976,-25.03392 -56.29134,-54.66244 -38.06856,-37.35591 -54.72184,-54.33568 -54.32396,-55.389 0.31557,-0.83543 1.27377,-1.79179 2.12933,-2.12525 1.76847,-0.68928 33.18383,-7.18303 72.20949,-14.92614 42.88018,-8.50788 117.05028,-23.66017 121.37188,-24.79516 2.197,-0.577 4.9747,-1.96659 6.1727,-3.08796 l 2.1782,-2.03887 -0.243,-51.95288 c -0.1336,-28.57408 0.03,-53.4527 0.3642,-55.28583 0.8967,-4.92144 -1.3695,-17.59441 -3.6676,-20.51077 -2.8903,-3.6677 -6.1394,-11.02728 -5.4017,-12.23508 0.3652,-0.59795 0.1628,-0.75025 -0.4707,-0.35412 -0.6114,0.38229 -2.8876,-0.5773 -5.0581,-2.13241 -2.1707,-1.55512 -12.4485,-5.86043 -22.8398,-9.56735 -11.2455,-4.0117 -19.91,-7.69415 -21.4055,-9.09739 l -2.5124,-2.35754 -0.1508,-28.81239 -0.1509,-28.81237 2.6946,-3.92866 c 2.72,-3.96569 38.3279,-39.9938 66.0267,-66.80585 8.2581,-7.99375 15.7803,-15.73498 16.7159,-17.20273 1.4999,-2.35262 1.6517,-5.23591 1.2819,-24.34716 -0.414,-21.40498 -0.4493,-21.70244 -2.7901,-23.57601 -2.2852,-1.82906 -5.0135,-1.88368 -75.634,-1.51391 -40.2947,0.21099 -74.72539,0.68403 -76.51256,1.0512 -2.38201,0.48939 -7.39309,4.65324 -18.77237,15.59851 -9.3561,8.99926 -16.32587,14.94436 -17.54402,14.96475 -1.32001,0.0221 -8.79405,-6.77479 -21.54641,-19.59431 l -19.52533,-19.62817 5.9076,-2.82098 c 3.24919,-1.55155 6.43634,-2.82516 7.08258,-2.83026 0.64624,-0.005 7.15919,-2.32271 14.47324,-5.15027 7.31403,-2.82754 24.52719,-9.19283 38.25145,-14.14508 72.68302,-26.22681 73.50262,-26.54927 76.68252,-30.16922 1.6962,-1.93088 1.8528,-5.22265 2.1639,-45.47361 0.194,-25.10066 -0.048,-44.06801 -0.5751,-44.99564 -0.8724,-1.53679 -8.2756,-9.13521 -53.1116,-54.51258 -11.10104,-11.23508 -27.37554,-27.8001 -36.16556,-36.81115 -34.88392,-35.76107 -46.48605,-47.05724 -49.71404,-48.40304 -4.29684,-1.7914 -31.90388,-1.9475 -264.15566,-1.49353 -334.66745,0.65415 -387.51887,0.88995 -392.94901,1.75318 -9.9817,1.58681 -9.07453,-10.38976 -8.55511,112.94456 0.25129,59.66253 0.23769,122.04446 -0.0301,138.62653 -0.44106,27.30599 -0.65907,30.34127 -2.31172,32.18563 -1.8076,2.01727 -2.43766,2.03418 -67.08641,1.79994 l -65.26168,-0.23645 -2.14377,2.16633 c -2.11234,2.13458 -2.14112,2.67212 -1.96313,36.66587 0.14081,26.89086 -0.0949,34.51838 -1.06892,34.58502 -0.99966,0.0684 -0.99905,0.18505 0.003,0.58332 1.51609,0.60254 2.12085,53.84536 0.62226,54.78242 -0.50139,0.31352 -1.93989,-1.11491 -3.19667,-3.17428 -4.88029,-7.99693 -8.01851,-11.2144 -10.92339,-11.19919 -1.53509,0.008 -6.32626,1.64723 -10.647034,3.64265 -4.320775,1.99543 -10.324984,4.77506 -13.342685,6.17696 -15.398417,7.15346 -23.29815,10.65713 -24.410073,10.82628 -0.677753,0.10315 -2.308739,0.88042 -3.624414,1.72738 -1.315675,0.84695 -5.402338,2.99357 -9.081475,4.77027 -7.428026,3.58706 -10.972835,7.48768 -12.646787,13.9162 -0.731483,2.80915 -0.985083,20.46429 -0.773734,53.86601 0.392758,62.07126 -1.542425,56.18484 21.935178,66.72224 7.660842,3.43839 21.597861,9.87095 30.971151,14.29456 9.373291,4.42361 18.518573,8.32812 20.322853,8.67669 4.00084,0.77293 5.66856,-0.57185 10.90346,-8.7921 6.39821,-10.04697 6.50774,-9.6256 5.93778,22.84419 -0.2776,15.81417 -0.58126,44.1467 -0.67481,62.96117 -0.14932,30.02825 0.021,34.36515 1.39398,35.49318 1.23028,1.01081 15.61003,1.31823 67.37799,1.44047 61.45356,0.1451 65.93278,0.27305 67.60825,1.93117 2.05462,2.03333 1.98136,-2.61871 2.21438,140.60568 0.11565,71.08774 -0.0709,82.80244 -1.35891,85.32544 -0.82113,1.6085 -1.28902,3.6808 -1.03976,4.605 0.31074,1.1523 0.48586,0.9545 0.55711,-0.6291 0.0612,-1.3606 0.54316,-2.0412 1.17298,-1.6565 1.31423,0.8027 0.79665,9.0301 -0.55181,8.7714 -0.53289,-0.1022 -1.26697,-1.2234 -1.63129,-2.4915 -0.62831,-2.187 -0.66696,-2.196 -0.75094,-0.1775 -0.0487,1.1704 0.58938,2.6847 1.41795,3.365 1.95263,1.6033 2.24986,12.5175 0.30952,11.3657 -0.97137,-0.5767 -0.965,-0.3915 0.0283,0.8221 1.02381,1.2509 1.39677,26.1251 1.85081,123.4339 0.31276,67.0271 0.4654,131.0931 0.33922,142.3689 -0.12618,11.2758 -0.0946,56.7263 0.0703,101.001 l 0.29969,80.4996 4.95916,18.9743 c 15.11616,57.8362 17.7005,67.0212 19.3016,68.5999 1.53426,1.5127 5.3003,1.7039 35.71621,1.8131 l 34.00111,0.1218 5.90865,-2.8049 c 3.24977,-1.5428 9.75677,-4.9968 14.46001,-7.6756 4.70325,-2.6788 13.71136,-7.7492 20.01802,-11.2673 6.30667,-3.5183 19.54186,-11.1557 29.41154,-16.972 9.86968,-5.8163 19.80856,-11.6488 22.0864,-12.9612 2.27784,-1.3124 4.68637,-3.0497 5.35231,-3.8607 0.66592,-0.811 2.44017,-1.481 3.94277,-1.4888 1.66658,-0.01 4.04977,-1.2378 6.11114,-3.1518 1.85852,-1.7255 11.00576,-7.6213 20.32719,-13.1017 19.02949,-11.188 21.93429,-11.9775 27.3823,-7.4418 2.29308,1.9091 3.62038,4.4116 5.15697,9.7232 1.13803,3.9338 2.94969,10.0728 4.02592,13.6422 1.07624,3.5694 4.73338,16.7449 8.127,29.2789 6.61658,24.4377 7.20963,26.0509 10.14696,27.6033 1.26158,0.6667 33.81006,0.8941 95.23186,0.6653 51.32337,-0.1908 110.41669,-0.1088 131.3185,0.1831 43.22985,0.6035 52.39306,0.3125 60.92293,-1.9357 z M 379.05385,1402.7631 c -1.1846,-0.8205 -2.60352,-2.9506 -3.15315,-4.7336 -0.62632,-2.0317 -1.07245,-32.7816 -1.19523,-82.3813 -0.18014,-72.7659 -0.0593,-79.3506 1.50079,-81.759 3.06671,-4.7343 8.96079,-2.9273 10.66425,3.2695 1.09849,3.996 1.33058,155.9256 0.24605,161.0652 -0.60102,2.8482 -3.11784,6.0164 -4.7864,6.0252 -0.61737,0 -2.09171,-0.6655 -3.27631,-1.486 z m -71.45366,-68.2519 c -15.08509,-7.3688 -14.48586,-28.6923 1.02236,-36.3807 8.51428,-4.221 15.72514,-2.5777 22.8283,5.2024 11.55423,12.6552 2.59222,33.17 -14.52856,33.2569 -3.09941,0.016 -6.6599,-0.7781 -9.3221,-2.0786 z m 55.45843,-219.8483 c 0.72034,-0.2927 1.58303,-0.2617 1.91705,0.069 0.33403,0.3305 -0.25536,0.57 -1.30973,0.5321 -1.16518,-0.042 -1.40337,-0.2776 -0.60732,-0.601 z M 316.588,632.82434 c -3.46987,-0.4454 -10.21807,-6.23519 -12.29119,-10.54554 -4.42335,-9.19689 0.57525,-20.39453 10.56184,-23.66015 10.82947,-3.54124 21.94206,4.99815 22.00442,16.90916 0.056,10.70138 -9.32277,18.70238 -20.27507,17.29653 z M 167.63314,631.0888 c -5.53633,-3.68892 -7.96436,-8.13075 -7.9984,-14.63223 -0.0552,-10.53683 7.00196,-17.60546 17.55275,-17.58135 4.0716,0.009 5.92253,0.59863 8.87377,2.8253 4.29588,3.24119 7.51267,9.46687 7.50559,14.52609 -0.007,4.69411 -3.59434,11.36267 -7.80132,14.50025 -4.67131,3.48387 -13.19175,3.65396 -18.13239,0.36194 z" />
  </g>
</svg>
